<svg id="facebook" xmlns="http://www.w3.org/2000/svg" viewBox="0 0 128.82 128.82">
  <defs>
    <style>
      .cls-1 {
        fill: #4a7aff;
      }

      .cls-2 {
        fill: #0053bf;
      }

      .cls-3 {
        fill: #fff;
      }

      .cls-4 {
        fill: #dce1eb;
      }
    </style>
  </defs>
  <path id="Path_1" data-name="Path 1" class="cls-1" d="M128.82,64.41A64.41,64.41,0,1,1,64.41,0,64.41,64.41,0,0,1,128.82,64.41Zm0,0"/>
  <path id="Path_2" data-name="Path 2" class="cls-2" d="M175.2,185.118a64.408,64.408,0,0,0,61.584-64.344c0-.251-.007-.5-.01-.751l-44.71-44.71-47.8,49.967,26.561,26.561-12.247,16.652Zm0,0" transform="translate(-107.965 -56.364)"/>
  <path id="Path_3" data-name="Path 3" class="cls-3" d="M192.063,72.184V86.769s-16.745-2.431-16.745,8.373v10.8h15.125l-1.89,16.475H175.318v42.943H158.573V122.42l-14.315-.27v-16.2H158.3V93.521s-.927-18.482,17.286-21.877C183.151,70.234,192.063,72.184,192.063,72.184Zm0,0" transform="translate(-107.962 -53.235)"/>
  <path id="Path_4" data-name="Path 4" class="cls-4" d="M275.425,86.769V72.184s-8.912-1.95-16.475-.54a25.535,25.535,0,0,0-3.305.842v92.877h3.035V122.42h13.234l1.891-16.475H258.679v-10.8C258.679,84.339,275.425,86.769,275.425,86.769Zm0,0" transform="translate(-191.324 -53.235)"/>
</svg>
