<?xml version="1.0" encoding="utf-8"?>
<!-- Generator: Adobe Illustrator 21.0.0, SVG Export Plug-In . SVG Version: 6.00 Build 0)  -->
<svg version="1.1" id="Layer_1" xmlns="http://www.w3.org/2000/svg" xmlns:xlink="http://www.w3.org/1999/xlink" x="0px" y="0px"
	 viewBox="0 0 512 512" style="enable-background:new 0 0 512 512;" xml:space="preserve">
<style type="text/css">
	.st0{fill:#71CCE0;}
	.st1{fill:#DFDFDF;}
	.st2{fill:#4A555F;}
	.st3{fill:#FFD452;}
	.st4{fill:#F58E6F;}
	.st5{fill:#FFFFFF;}
	.st6{fill:none;}
</style>
<g>
	<g>
		<g>
			<path class="st0" d="M217.629,21.485h-138.3c-17.16,0-31.12,14.377-31.12,32.049v39.412c0,5.945,1.634,11.788,4.725,16.895
				l3.465,5.77l9.022,14.685v-6.282l12.009,0.878c0.63,0.047,1.26,0.103,1.9,0.103h138.3c17.16,0,31.121-14.377,31.121-32.05V53.534
				C248.749,35.862,234.789,21.485,217.629,21.485z"/>
		</g>
	</g>
	<g>
		<g>
			<g>
				<path class="st0" d="M398.003,148.546l-2.612,3.805c-0.414,0.603-0.624,1.28-0.624,2.013c0,1.974,1.605,3.579,3.579,3.579
					c1.973,0,3.58-1.606,3.58-3.579c0-1.092-0.482-1.874-0.886-2.337L398.003,148.546z M393.77,14.161
					c-33.5,0-60.754,27.254-60.754,60.754c0,31.284,23.429,57.265,54.5,60.435l9.774,0.997l9.614-2.118
					c27.592-6.08,47.619-31.025,47.619-59.314C454.524,41.415,427.27,14.161,393.77,14.161z"/>
			</g>
		</g>
	</g>
	<g>
		<g>
			<path class="st1" d="M227.158,388.054l-35.301-0.001l-36.573-55.222c-6.589-9.951-17.648-15.89-29.583-15.89H81.979
				c-14.227,0-26.291,9.427-30.281,22.362l-0.004,0.001l0.002,0.004c-0.908,2.948-1.402,6.075-1.402,9.315v62.132h176.864
				c6.259,0,11.351-5.091,11.351-11.35C238.51,393.146,233.418,388.054,227.158,388.054z"/>
		</g>
	</g>
	<g>
		<g>
			<g>
				<path class="st2" d="M217.629,7.324h-138.3c-24.969,0-45.281,20.73-45.281,46.21v39.412c0,6.659,1.427,13.226,4.16,19.268
					h-0.517l41.89,68.184v-41.241h138.048c24.969,0,45.281-20.73,45.281-46.21V53.534C262.91,28.054,242.598,7.324,217.629,7.324z
					 M256.374,92.946c0,21.877-17.381,39.675-38.745,39.675h-138.3c-0.827,0-1.638-0.063-2.45-0.123l-3.834-0.28v25.056
					L49.378,118.75h0.035l-3.002-4.96c-3.813-6.298-5.827-13.506-5.827-20.843V53.534c0-21.877,17.381-39.674,38.745-39.674h138.3
					c21.365,0,38.745,17.798,38.745,39.674V92.946z"/>
			</g>
		</g>
	</g>
	<g>
		<g>
			<g>
				<path class="st2" d="M359.189,64.021c-6.006,0-10.893,4.887-10.893,10.893c0,6.006,4.887,10.893,10.893,10.893
					c6.006,0,10.893-4.887,10.893-10.893C370.082,68.907,365.195,64.021,359.189,64.021z M359.189,79.271
					c-2.403,0-4.357-1.955-4.357-4.357c0-2.403,1.954-4.357,4.357-4.357c2.403,0,4.357,1.955,4.357,4.357
					C363.547,77.316,361.592,79.271,359.189,79.271z"/>
			</g>
		</g>
	</g>
	<g>
		<g>
			<g>
				<path class="st2" d="M393.77,64.021c-6.006,0-10.893,4.887-10.893,10.893c0,6.006,4.887,10.893,10.893,10.893
					c6.006,0,10.893-4.887,10.893-10.893C404.663,68.907,399.776,64.021,393.77,64.021z M393.77,79.271
					c-2.403,0-4.357-1.955-4.357-4.357c0-2.403,1.954-4.357,4.357-4.357c2.403,0,4.357,1.955,4.357,4.357
					C398.127,77.316,396.173,79.271,393.77,79.271z"/>
			</g>
		</g>
	</g>
	<g>
		<g>
			<g>
				<path class="st2" d="M428.351,64.021c-6.006,0-10.893,4.887-10.893,10.893c0,6.006,4.887,10.893,10.893,10.893
					c6.006,0,10.893-4.887,10.893-10.893C439.244,68.907,434.357,64.021,428.351,64.021z M428.351,79.271
					c-2.403,0-4.357-1.955-4.357-4.357c0-2.403,1.954-4.357,4.357-4.357c2.403,0,4.357,1.955,4.357,4.357
					C432.708,77.316,430.754,79.271,428.351,79.271z"/>
			</g>
		</g>
	</g>
	<g>
		<g>
			<g>
				<path class="st2" d="M113.898,64.021c-6.007,0-10.894,4.887-10.894,10.893c0,6.006,4.887,10.893,10.894,10.893
					c6.006,0,10.893-4.887,10.893-10.893C124.791,68.907,119.904,64.021,113.898,64.021z M113.898,79.271
					c-2.403,0-4.358-1.955-4.358-4.357c0-2.403,1.955-4.357,4.358-4.357s4.357,1.955,4.357,4.357
					C118.255,77.316,116.301,79.271,113.898,79.271z"/>
			</g>
		</g>
	</g>
	<g>
		<g>
			<g>
				<path class="st2" d="M148.479,64.021c-6.006,0-10.893,4.887-10.893,10.893c0,6.006,4.887,10.893,10.893,10.893
					c6.006,0,10.893-4.887,10.893-10.893C159.372,68.907,154.485,64.021,148.479,64.021z M148.479,79.271
					c-2.403,0-4.357-1.955-4.357-4.357c0-2.403,1.954-4.357,4.357-4.357c2.403,0,4.357,1.955,4.357,4.357
					C152.836,77.316,150.882,79.271,148.479,79.271z"/>
			</g>
		</g>
	</g>
	<g>
		<g>
			<g>
				<path class="st2" d="M183.06,64.021c-6.006,0-10.893,4.887-10.893,10.893c0,6.006,4.887,10.893,10.893,10.893
					c6.006,0,10.893-4.887,10.893-10.893C193.953,68.907,189.066,64.021,183.06,64.021z M183.06,79.271
					c-2.403,0-4.357-1.955-4.357-4.357c0-2.403,1.954-4.357,4.357-4.357c2.403,0,4.357,1.955,4.357,4.357
					C187.417,77.316,185.463,79.271,183.06,79.271z"/>
			</g>
		</g>
	</g>
	<g>
		<g>
			<g>
				<path class="st2" d="M468.685,74.913C468.685,33.606,435.078,0,393.77,0c-41.308,0-74.914,33.606-74.914,74.914
					c0,37.019,26.616,68.017,62.634,73.913c-0.583,1.773-0.883,3.636-0.883,5.536c0,9.782,7.958,17.74,17.739,17.74
					c9.782,0,17.74-7.958,17.74-17.74c0-2.589-0.57-5.128-1.647-7.445C446.133,137.81,468.685,108.243,468.685,74.913z
					 M408.545,141.674l-5.383,1.186l3.623,4.154c1.784,2.044,2.766,4.655,2.766,7.35c0,6.178-5.026,11.205-11.205,11.205
					c-6.177,0-11.204-5.026-11.204-11.205c0-2.27,0.679-4.459,1.963-6.329l3.117-4.541l-5.479-0.559
					c-34.977-3.568-61.352-32.811-61.352-68.021c0-37.704,30.675-68.378,68.379-68.378s68.379,30.675,68.379,68.379
					C462.149,106.754,439.606,134.831,408.545,141.674z"/>
			</g>
		</g>
	</g>
	<g>
		<g>
			<g>
				<path class="st2" d="M399.989,180.04c-5.111,0-9.271,4.159-9.271,9.27c0,5.112,4.159,9.27,9.271,9.27
					c5.111,0,9.27-4.159,9.27-9.27C409.259,184.199,405.1,180.04,399.989,180.04z M399.989,192.044
					c-1.508,0-2.735-1.227-2.735-2.734c0-1.508,1.227-2.734,2.735-2.734c1.507,0,2.734,1.227,2.734,2.734
					C402.723,190.818,401.496,192.044,399.989,192.044z"/>
			</g>
		</g>
	</g>
	<g>
		<g>
			<g>
				<path class="st2" d="M20.379,418.382v42.288h471.241v-42.288H20.379z M485.085,454.135H26.915v-29.217h458.17V454.135z"/>
			</g>
		</g>
	</g>
	<g>
		<g>
			<rect x="34.54" y="432.543" class="st0" width="442.919" height="13.967"/>
		</g>
	</g>
	<g>
		<g>
			<polygon class="st2" points="230.908,454.135 230.908,512 237.444,512 237.444,460.67 274.556,460.67 274.556,512 281.092,512 
				281.092,454.135 			"/>
		</g>
	</g>
	<g>
		<g>
			<rect x="245.07" y="468.296" class="st0" width="21.862" height="43.704"/>
		</g>
	</g>
	<g>
		<g>
			<g>
				<path class="st2" d="M114.794,209.906c-27.407,0-49.704,22.298-49.704,49.705c0,27.407,22.298,49.704,49.704,49.704
					c27.408,0,49.705-22.298,49.705-49.705S142.202,209.906,114.794,209.906z M114.794,302.779
					c-23.803,0-43.169-19.365-43.169-43.169c0-23.803,19.366-43.169,43.169-43.169c23.804,0,43.17,19.365,43.17,43.169
					C157.964,283.413,138.598,302.779,114.794,302.779z"/>
			</g>
		</g>
	</g>
	<g>
		<g>
			<path class="st3" d="M114.794,224.067c-19.599,0-35.543,15.945-35.543,35.544c0,19.599,15.945,35.544,35.543,35.544
				c19.6,0,35.545-15.945,35.545-35.544C150.338,240.011,134.394,224.067,114.794,224.067z"/>
		</g>
	</g>
	<g>
		<g>
			<path class="st2" d="M151.835,377.193h-10.942c-15.247,0-29.07-8.412-36.075-21.954l-12.45-24.068l-5.806,3.003l12.451,24.068
				c8.133,15.721,24.18,25.487,41.88,25.487h10.942c9.554,0,17.327,7.772,17.327,17.326c0,9.554-7.773,17.327-17.327,17.327H108.86
				c-15.216,0-29.026-8.387-36.041-21.888l-30.517-58.727l-5.8,3.014l30.517,58.727c8.144,15.674,24.177,25.411,41.841,25.411
				h42.975c13.158,0,23.862-10.705,23.862-23.862C175.698,387.897,164.993,377.193,151.835,377.193z"/>
		</g>
	</g>
	<g>
		<g>
			<path class="st2" d="M106.899,358.807l-0.599-0.958c-0.188-0.265-0.338-0.549-0.53-0.891l-0.398-0.68l-0.066,0.039l-0.447-0.737
				l-2.5,2.439l-2.888,0.986l0.622,1.192c0.088,0.16,0.178,0.319,0.269,0.477l0.206,0.348c0.031,0.05,0.062,0.101,0.094,0.151
				l0.19,0.308c6.556,10.567,16.856,18,29.005,20.931l1.532-6.354C121.221,373.605,112.559,367.494,106.899,358.807z"/>
		</g>
	</g>
	<g>
		<g>
			<g>
				<path class="st2" d="M227.158,373.893h-27.694l-32.372-48.882c-9.22-13.921-24.693-22.232-41.39-22.232H81.98
					c-25.279,0-45.846,20.566-45.846,45.846v76.293l191.024-0.001c14.067,0,25.512-11.446,25.512-25.512
					C252.67,385.337,241.225,373.893,227.158,373.893z M227.158,418.381L42.67,418.382v-69.757c0-21.675,17.635-39.31,39.31-39.31
					h43.722c14.499,0,27.935,7.217,35.941,19.305l34.311,51.809h31.204c10.463,0,18.977,8.513,18.977,18.976
					C246.135,409.868,237.621,418.381,227.158,418.381z"/>
			</g>
		</g>
	</g>
	<g>
		<g>
			<g>
				<path class="st2" d="M401.53,209.905c-27.407,0-49.704,22.298-49.704,49.705s22.298,49.704,49.704,49.704
					c27.407,0,49.704-22.298,49.704-49.705C451.235,232.203,428.937,209.905,401.53,209.905z M401.53,302.779
					c-23.803,0-43.169-19.365-43.169-43.169c0-23.803,19.366-43.169,43.169-43.169s43.169,19.365,43.169,43.169
					C444.699,283.413,425.333,302.779,401.53,302.779z"/>
			</g>
		</g>
	</g>
	<g>
		<g>
			<path class="st3" d="M401.53,224.066c-19.599,0-35.543,15.945-35.543,35.544c0,19.599,15.945,35.543,35.543,35.543
				c19.6,0,35.545-15.945,35.545-35.544C437.075,240.011,421.13,224.066,401.53,224.066z"/>
		</g>
	</g>
	<g>
		<g>
			<path class="st1" d="M464.627,339.308l0.002-0.004l-0.003-0.001c-3.99-12.935-16.054-22.362-30.281-22.362h-43.722
				c-11.935,0-22.994,5.94-29.583,15.89l-36.573,55.222l-35.301,0.001c-6.259,0-11.352,5.092-11.352,11.351
				c0,6.259,5.092,11.35,11.352,11.35H466.03v-62.132C466.03,345.383,465.536,342.255,464.627,339.308z"/>
		</g>
	</g>
	<g>
		<g>
			<path class="st2" d="M473.277,339.16l-29.771,57.332c-7.017,13.501-20.826,21.889-36.042,21.889h-42.975
				c-9.554,0-17.327-7.772-17.327-17.326c0-9.554,7.773-17.327,17.327-17.327h10.943c17.7,0,33.747-9.766,41.81-25.36l13.458-23.416
				l-5.666-3.257l-13.528,23.543c-7.005,13.542-20.828,21.955-36.074,21.955h-10.943c-13.158,0-23.862,10.705-23.862,23.862
				c0,13.158,10.705,23.862,23.862,23.862h42.975c17.664,0,33.697-9.737,41.842-25.412l29.771-57.333L473.277,339.16z"/>
		</g>
	</g>
	<g>
		<g>
			<g>
				<path class="st2" d="M466.763,316.206c-8.659-8.659-20.172-13.428-32.417-13.427h-43.723c-16.698,0-32.17,8.311-41.389,22.233
					l-32.372,48.881l-27.695,0.001c-14.067,0-25.511,11.444-25.511,25.512c0,14.067,11.444,25.512,25.511,25.512H480.19v-76.293
					C480.19,336.378,475.422,324.865,466.763,316.206z M473.655,418.381H289.166c-10.463,0-18.975-8.513-18.975-18.976
					c0-10.463,8.512-18.976,18.975-18.976l31.206-0.001l34.311-51.809c8.006-12.088,21.441-19.305,35.94-19.305h43.723
					c10.499,0,20.371,4.089,27.796,11.513c7.424,7.425,11.513,17.296,11.513,27.796V418.381z"/>
			</g>
		</g>
	</g>
	<g>
		<g>
			<rect x="367.951" y="468.296" class="st1" width="98.079" height="16.405"/>
		</g>
	</g>
	<g>
		<g>
			<rect x="50.295" y="468.296" class="st1" width="98.079" height="16.405"/>
		</g>
	</g>
	<g>
		<g>
			<polygon class="st2" points="353.79,454.135 353.79,484.701 360.326,484.701 360.326,460.67 473.655,460.67 473.655,484.701 
				480.19,484.701 480.19,454.135 			"/>
		</g>
	</g>
	<g>
		<g>
			<polygon class="st2" points="36.134,454.135 36.134,484.701 42.67,484.701 42.67,460.67 156,460.67 156,484.701 162.536,484.701 
				162.536,454.135 			"/>
		</g>
	</g>
	<g>
		<g>
			<polygon class="st4" points="101.461,306.047 109.408,325.158 120.181,325.158 128.275,306.047 			"/>
		</g>
	</g>
	<g>
		<g>
			<path class="st4" d="M120.188,325.161h-10.784l-6.884,32.701c0,0,0.022,0.021,0.044,0.086c0.131,0.218,0.501,0.85,1.068,1.787
				c0,0.021,0,0.021,0,0.021c6.122,9.87,15.882,16.797,26.993,19.477L120.188,325.161z"/>
		</g>
	</g>
	<g>
		<g>
			<g>
				<path class="st2" d="M96.562,302.779l10.665,25.647h15.118l10.862-25.647H96.562z M118.016,321.89h-6.427l-5.229-12.575h16.983
					L118.016,321.89z"/>
			</g>
		</g>
	</g>
	<g>
		<g>
			<g>
				<path class="st2" d="M133.832,378.615l-10.436-54.073c-0.297-1.538-1.642-2.649-3.208-2.649h-10.784
					c-1.546,0-2.88,1.082-3.198,2.595l-6.884,32.701c-0.159,0.754-0.045,1.529,0.305,2.193c0.04,0.085,0.085,0.167,0.134,0.247
					l0.936,1.568c0.047,0.096,0.099,0.19,0.155,0.281c6.555,10.567,16.855,18,29.005,20.932c0.253,0.061,0.511,0.091,0.766,0.091
					c0.831,0,1.642-0.318,2.257-0.905C133.684,380.83,134.043,379.706,133.832,378.615z M106.537,358.241
					c-0.034-0.066-0.07-0.131-0.108-0.195l-0.449-0.752l6.076-28.866h5.435l8.893,46.082
					C118.179,371.392,111.254,365.745,106.537,358.241z"/>
			</g>
		</g>
	</g>
	<g>
		<g>
			<polygon class="st4" points="388.041,306.047 396.136,325.158 406.909,325.158 414.855,306.047 			"/>
		</g>
	</g>
	<g>
		<g>
			<path class="st4" d="M406.912,325.161h-10.784l-10.435,54.073c11.111-2.681,20.871-9.608,26.993-19.477c0,0,0,0,0-0.021
				c0.566-0.937,0.937-1.569,1.068-1.787c0.022-0.065,0.044-0.086,0.044-0.086L406.912,325.161z"/>
		</g>
	</g>
	<g>
		<g>
			<g>
				<path class="st2" d="M383.108,302.779l10.863,25.647h15.118l10.663-25.647H383.108z M404.728,321.89h-6.427l-5.326-12.575
					h16.983L404.728,321.89z"/>
			</g>
		</g>
	</g>
	<g>
		<g>
			<g>
				<path class="st2" d="M416.994,357.189l-6.885-32.701c-0.318-1.512-1.652-2.595-3.198-2.595h-10.783
					c-1.566,0-2.912,1.111-3.208,2.649l-10.436,54.073c-0.211,1.091,0.148,2.215,0.951,2.982c0.616,0.588,1.427,0.905,2.257,0.905
					c0.255,0,0.513-0.03,0.766-0.091c12.149-2.931,22.45-10.365,29.005-20.932c0.054-0.089,0.104-0.18,0.151-0.273l0.94-1.576
					c0.049-0.08,0.094-0.163,0.134-0.247C417.039,358.717,417.153,357.943,416.994,357.189z M409.888,358.046
					c-0.037,0.062-0.072,0.126-0.106,0.191c-4.716,7.506-11.643,13.154-19.849,16.273l8.893-46.082h5.434l6.077,28.866
					L409.888,358.046z"/>
			</g>
		</g>
	</g>
</g>
</svg>
