<svg fill="none" height="369" viewBox="0 0 368 369" width="368" xmlns="http://www.w3.org/2000/svg"><path d="m283.455 329.889h-214.5345c-2.0596 0-4.0991-.406-6.002-1.194-1.9028-.788-3.6319-1.943-5.0883-3.399-1.4564-1.457-2.6117-3.185-3.4-5.088-.7882-1.903-1.1939-3.943-1.1939-6.002v-139.695c.0001-4.008 1.535-7.865 4.2894-10.777s6.5193-4.658 10.5214-4.881l222.8119-12.419c9.329-.521 17.04 7.181 16.531 16.511l-8.278 152.112c-.217 4.006-1.962 7.776-4.874 10.534-2.912 2.759-6.771 4.297-10.783 4.298z" fill="#fa541c"/><path d="m181.199 245.595 117.271-97.666c-2.369-1.132-4.986-1.646-7.607-1.495l-222.8126 12.418c-3.6908.203-7.1905 1.707-9.8775 4.245l87.7671 81.625c9.527 8.861 25.201 9.249 35.259.873z" fill="#b3200e" opacity=".48"/><path d="m164.893 240.755c-6.009-.006-11.808-2.213-16.3-6.204l-33.061-29.194c-.456-.414-.73-.991-.764-1.605-.034-.615.175-1.219.583-1.68.407-.462.98-.745 1.594-.788.615-.043 1.221.158 1.689.559l33.069 29.194c3.382 3.009 7.689 4.772 12.209 4.998 4.521.226 8.983-1.098 12.647-3.754l17.136-12.316c2.507-1.753 5.222 1.96 2.735 3.806-8.114 5.137-21.191 18.031-31.537 16.984z" fill="#fdab76"/><path d="m104.774 195.082c-1.357.257-4.9915-3.864-6.003-4.516-2.2736-2.076.7574-5.515 3.103-3.514l4.452 3.93c1.632 1.341.52 4.178-1.552 4.1z" fill="#fdab76"/><path d="m137.114 99.9609-8.95 47.9211 27.904-24.533z" fill="#fdab76"/><path d="m340.211 114.413-193.943 9.412c-1.18.058-2.36-.126-3.468-.538s-2.12-1.045-2.976-1.86c-.855-.815-1.537-1.796-2.002-2.882-.466-1.086-.706-2.256-.706-3.438v-79.7889c0-4.1716 1.624-8.1794 4.528-11.1743s6.859-4.7416 11.029-4.8702l174.797-5.4094c13.013 0 23.563 10.5524 23.563 23.5683v65.6225c-.001 2.92-1.125 5.728-3.14 7.843-2.014 2.114-4.765 3.373-7.682 3.515z" fill="#fdab76"/><g fill="#fee9d1"><path d="m152.067 120.405c-6.302.124-11.902-5.453-11.759-11.777v-71.9124c0-8.3578 6.704-15.1069 15.263-15.366l169.237-5.1096c12.706 0 23.032 10.0811 23.032 22.4728v61.9982c0 5.851-4.688 10.656-10.675 10.939-.577.016-184.566 8.77-185.098 8.755zm172.747-103.7554-169.232 5.1096c-8.335.2467-14.863 6.8207-14.863 14.9551v71.9137c.001 1.538.313 3.059.919 4.472.606 1.414 1.492 2.689 2.604 3.75 1.113 1.061 2.43 1.886 3.87 2.423 1.441.538 2.976.777 4.512.704l184.522-8.739c5.765-.272 10.283-4.897 10.283-10.529v-61.9962c0-12.1647-10.144-22.0632-22.615-22.0632z"/><path d="m167.857 52.5602c.751.058 1.179.4934 1.674 1.0707l21.614 25.5865c-.433-1.6123-1.029-25.1979-1.18-27.4936l6.453-.2332 1.417 39.3722c-1.036-.0506-4.345.3836-5.238-.0839-.387-.1678-.772-.4811-1.151-.94l-21.529-25.4792c.355 1.1917 1.029 25.5051 1.152 27.4665l-6.453.2332-1.417-39.3722c.603-.0074 4.148-.1887 4.658-.127z"/><path d="m229.2 50.3113.209 5.8264-17.453.6279.394 10.9188 13.75-.4935.203 5.6364-13.751.4935.401 11.1358 17.453-.6279.211 5.8535-24.832.8944-1.417-39.3709z"/><path d="m231.895 50.2139c1.244.1591 6.772-.6872 7.762.1702.43.2753.749.6933.901 1.1806.822 2.8212 8.346 24.9548 8.537 27.3381.099-2.2784 7.069-25.1657 7.772-27.9253.572-1.9615 2.861-1.7913 4.514-1.8246 1.18-.0567 2.119.5009 2.51 1.5717.881 2.6165 9.375 24.977 9.701 27.105 0-2.0527 5.963-25.1103 6.527-27.6885.125-.4794.407-.9028.802-1.2016.892-.9869 6.115-.5292 7.307-.7537l-10.808 39.8113-6.616.2393-9.573-26.5919c-.123-.3404-.246-.7093-.381-1.104-.134-.3948-.26-.8179-.386-1.2682-.035.8635-7.94 28.1265-8.311 29.6352l-6.617.2381z"/><path d="m313.89 54.4328c-1.562 3.3197-4.877-1.8615-9.622-1.2904-2.38.0741-4.731.9277-5.612 3.1606-.508 1.3175-.452 3.2617.55 4.3016 2.097 2.2094 5.572 2.5684 8.444 3.5528 3.392 1.0276 6.933 2.5104 8.528 5.9214 1.889 4.1326.9 10.0207-2.329 13.3231-5.883 6.1076-17.114 4.9937-23.068-.6279 3.782-7.5831 3.517-3.9082 9.603-1.7271 2.344.8413 6.653.5206 8.311-1.2262 1.653-1.3681 2.213-5.027.696-6.8281-2.977-3.0939-8.048-2.7794-11.796-4.673-5.256-1.9737-7.361-8.3886-5.383-13.6018 3.382-8.982 16.835-9.6074 23.35-3.8119z"/></g><path d="m74.2467 206.432c-.1074.203-6.8873 5.192-6.8873 5.192 1.8208 13.27 11.1025 22.452 23.7015 11.111 0 0 7.5127 1.787 11.5081-13.852.917-3.589-4.3741-3.892-10.7593-3.231-8.2357.849-17.563.78-17.563.78z" fill="#063963"/><path d="m57.1048 248.183c11.1494-7.231 10.5548-4.071 23.8717-3.116 25.4635-5.7 37.5715 3.068 44.3715 27.716-4.994 5.129-11.281 7.402-11.281 7.402l-1.161 47.076-27.8376 14.252-31.7718-15.955 1.1374-46.006s-10.0885-4.699-10.8287-6.407c-.7402-1.709 4.5977-18.842 13.4995-24.962z" fill="#22b8cf"/><path d="m44.0744 272.939s-13.5192 37.487 17.3113 52.89c6.4062-.846 3.939-11.483 3.939-11.483s-13.3971-2.96-9.3755-34.233c-3.7009-3.048-11.8748-7.174-11.8748-7.174z" fill="#fdbab9"/><path d="m124.7 272.939s9.303 39.128-17.307 52.89c-6.402-.851-3.941-11.483-3.941-11.483s10.798-5.317 9.376-34.233c3.693-3.048 11.872-7.174 11.872-7.174z" fill="#fdbab9"/><path d="m111.289 287.236h-55.6696c-1.4839 0-2.6868 1.203-2.6868 2.687v35.851c0 1.484 1.2029 2.687 2.6868 2.687h55.6696c1.484 0 2.687-1.203 2.687-2.687v-35.851c0-1.484-1.203-2.687-2.687-2.687z" fill="#116e95"/><path d="m141.437 340.858c-6.797-1.86-23.76-.905-23.825-.916-.806 1.009-1.524 9.267-1.744 10.617.289-.175 17.955 3.683 25.083 2.448 5.687-1.769 6.361-10.497.486-12.149z" fill="#063963"/><path d="m112.978 339.443c2.282.051 5.058-.012 6.574 2.103 1.773 2.098 2.017 5.823-.07 7.805-1.625 1.948-5.263.943-7.382.917z" fill="#fdbab9"/><path d="m44.7982 341.599-.6168-1.798c-.0913.023-16.9758-1.481-23.8384.185-5.9115 1.471-5.4563 10.215.1826 12.159 6.9798 1.451 24.998-1.857 25.1337-1.676z" fill="#063963"/><path d="m44.7982 341.599-.6168-1.798c-.0913.023-16.9758-1.481-23.8384.185-5.9115 1.471-5.4563 10.215.1826 12.159 6.9798 1.451 24.998-1.857 25.1337-1.676z" fill="#000" opacity=".48"/><path d="m48.8348 339.446c-2.2785-.02-5.0578-.169-6.6245 1.901-1.8294 2.046-2.1563 5.765-.1233 7.803 1.5728 1.995 5.233 1.111 7.356 1.144z" fill="#fdbab9"/><path d="m142.7 312.971c-3.168-7.292-10.916-8.475-17.517-5.067-.115.151-41.8816 21.558-78.7162 30.939 1.2546 4.123 1.8788 8.538 1.6777 12.845 28.2498-1.451 58.9015-10.872 85.2425-19.15 8.174-2.635 12.825-11.486 9.313-19.567z" fill="#063963"/><path d="m142.7 312.971c-3.168-7.292-10.916-8.475-17.517-5.067-.115.151-41.8816 21.558-78.7162 30.939 1.2546 4.123 1.8788 8.538 1.6777 12.845 28.2498-1.451 58.9015-10.872 85.2425-19.15 8.174-2.635 12.825-11.486 9.313-19.567z" fill="#000" opacity=".48"/><path d="m113.178 349.91c-.169-4.28.864-8.142 2.535-11.856-26.9482-8.458-53.3994-19.98-73.542-31.138-17.8874-9.413-26.6461 18.852-8.6032 24.252 32.6403 13.298 45.9004 16.247 79.6542 19.629-.016-.296-.032-.592-.044-.887z" fill="#063963"/><path d="m67.4512 243.37c2.9088 15.098 29.3601 16.46 31.6201-.039l-9.0869-1.944-.7599-10.125-13.6672 1.012-.2529 9.622z" fill="#fdbab9"/><path d="m78.6945 204.639c-18.281 32.297 17.0462 48.694 18.3155 8.985-3.1864-8.919-5.2835-7.861-5.2835-7.861z" fill="#fdbab9"/><path d="m100.177 202.319c6.503 1.788.945 15.893-8.8466 12.557-9.7912-3.336-13.6401-3.286-15.1661-.598-1.5259 2.688-1.8504 12.237-5.1639 7.517-3.6305-5.173-5.6537-15.559-1.204-18.907 3.9784-2.992 4.9061-7.631 9.6765-7.471 6.3322.213 11.2259-2.591 14.0867-.569 3.2826 2.332 1.8319 6.156 6.6174 7.471z" fill="#063963"/><path d="m75.5643 216.471c-5.5512-5.741-3.1765 10.876-.5736 6.38 1.6839-2.57.5736-6.38.5736-6.38z" fill="#fdbab9"/></svg>