<svg xmlns="http://www.w3.org/2000/svg" xmlns:xlink="http://www.w3.org/1999/xlink" viewBox="0 0 128.82 128.845">
  <defs>
    <style>
      .cls-1 {
        fill: url(#linear-gradient);
      }

      .cls-2 {
        fill: #fff;
      }
    </style>
    <linearGradient id="linear-gradient" x1="-1.539" y1="-3.018" x2="-0.167" y2="-3.622" gradientUnits="objectBoundingBox">
      <stop offset="0" stop-color="#fd5"/>
      <stop offset="0.499" stop-color="#ff543e"/>
      <stop offset="1" stop-color="#c837ab"/>
    </linearGradient>
  </defs>
  <g id="instagram" transform="translate(0.07 0.038)">
    <path id="Path_1" data-name="Path 1" class="cls-1" d="M8.333,8.907C-1.761,19.392.3,30.529.3,64.365c0,28.1-4.9,56.266,20.755,62.9,8.012,2.061,79,2.061,87-.011,10.683-2.756,19.375-11.421,20.563-26.53.166-2.109.166-70.567-.005-72.719C127.358,11.909,117.451,2.634,104.4.756,101.406.322,100.806.194,85.456.167,31.01.194,19.074-2.231,8.333,8.907Z" transform="translate(0 0)"/>
    <path id="Path_2" data-name="Path 2" class="cls-2" d="M50.579,3.176c-19.433,0-37.887-1.729-44.936,16.361C2.732,27.009,3.154,36.712,3.154,50.606c0,12.192-.391,23.651,2.489,31.063,7.033,18.1,25.636,16.367,44.925,16.367,18.609,0,37.8,1.937,44.931-16.367,2.917-7.546,2.489-17.105,2.489-31.063,0-18.529,1.022-30.491-7.964-39.472-9.1-9.1-21.4-7.959-39.466-7.959Zm-4.25,8.547c40.537-.064,45.7-4.571,42.849,58.033C88.167,91.9,71.308,89.468,50.585,89.468c-37.786,0-38.872-1.081-38.872-38.883,0-38.241,3-38.84,34.617-38.872ZM75.895,19.6a5.689,5.689,0,1,0,5.689,5.689A5.69,5.69,0,0,0,75.895,19.6ZM50.579,26.249A24.355,24.355,0,1,0,74.926,50.606,24.356,24.356,0,0,0,50.579,26.249Zm0,8.547c20.9,0,20.927,31.62,0,31.62C29.685,66.416,29.653,34.8,50.579,34.8Z" transform="translate(13.94 13.791)"/>
  </g>
</svg>
