<svg xmlns="http://www.w3.org/2000/svg" viewBox="0 0 128.82 128.82">
  <defs>
    <style>
      .cls-1 {
        fill: #0077b7;
      }
    </style>
  </defs>
  <path id="linkedin" class="cls-1" d="M117.167,0H11.653A11.653,11.653,0,0,0,0,11.653V117.167A11.653,11.653,0,0,0,11.653,128.82H117.167a11.653,11.653,0,0,0,11.653-11.653V11.653A11.653,11.653,0,0,0,117.167,0Zm-77.3,111.232a3.391,3.391,0,0,1-3.391,3.391H22.036a3.391,3.391,0,0,1-3.391-3.391V50.72a3.391,3.391,0,0,1,3.391-3.391H36.471a3.391,3.391,0,0,1,3.391,3.391ZM29.254,41.624A13.714,13.714,0,1,1,42.967,27.911,13.714,13.714,0,0,1,29.254,41.624ZM115.3,111.5a3.118,3.118,0,0,1-3.118,3.118H96.693a3.118,3.118,0,0,1-3.118-3.118V83.121c0-4.234,1.242-18.554-11.065-18.554-9.547,0-11.483,9.8-11.872,14.2V111.5a3.118,3.118,0,0,1-3.118,3.118H52.538A3.118,3.118,0,0,1,49.42,111.5V50.447a3.118,3.118,0,0,1,3.118-3.118H67.52a3.118,3.118,0,0,1,3.118,3.118v5.279c3.54-5.312,8.8-9.413,20-9.413,24.8,0,24.662,23.173,24.662,35.905V111.5Z"/>
</svg>
