<svg xmlns="http://www.w3.org/2000/svg" fill="none" viewBox="0 0 670.78 257.86"><path d="M152.016 248.791C195.383 248.791 230.538 213.636 230.538 170.27C230.538 126.903 195.383 91.748 152.016 91.748C108.65 91.748 73.4948 126.903 73.4948 170.27C73.4948 213.636 108.65 248.791 152.016 248.791Z" fill="#350073"></path><path d="M71.1302 120.895C71.1302 120.895 147.932 21.8366 230.538 120.895V69.7174L300 53.0508L152.017 0L0 53.0508L73.4951 71.5909L71.1302 120.895Z" fill="#350073"></path><path d="M145.312 257.862C145.312 257.862 165.029 157.862 208.221 140.96C208.221 140.96 151.413 139.087 126.065 249.877L145.312 257.862Z" fill="white"></path><path d="M142.261 181.101C142.261 181.101 129.823 156.685 92.7322 135.565C92.7322 135.565 132.873 142.137 155.171 164.199L142.261 181.101Z" fill="#FAB612"></path><path d="M158.496 155.19C165.236 155.19 170.699 149.726 170.699 142.987C170.699 136.247 165.236 130.783 158.496 130.783C151.757 130.783 146.293 136.247 146.293 142.987C146.293 149.726 151.757 155.19 158.496 155.19Z" fill="#FAB612"></path><path d="M52.8264 59.4189H44.8412V149.12H52.8264V59.4189Z" fill="#350073"></path><path d="M48.7401 136.58C53.5347 136.58 57.4215 134.426 57.4215 131.768C57.4215 129.111 53.5347 126.957 48.7401 126.957C43.9455 126.957 40.0587 129.111 40.0587 131.768C40.0587 134.426 43.9455 136.58 48.7401 136.58Z" fill="#350073"></path><path d="M138.411 36.4666C138.677 36.2516 138.933 36.0469 139.199 35.8421C139.998 35.2074 140.796 34.5727 141.605 33.9482C141.81 33.7844 141.882 33.6206 141.882 33.3237C141.882 32.3409 141.841 31.3479 142.076 30.3856C142.209 29.843 142.404 29.2901 142.967 29.1673C143.696 29.0081 144.27 29.2901 144.328 30.232C144.359 30.7234 144.318 31.2148 144.318 31.7062C144.318 31.7164 144.328 31.7369 144.349 31.7676C144.738 31.4195 145.127 31.0817 145.506 30.7336C146.345 29.9761 147.174 29.2185 148.014 28.4711C148.382 28.1435 148.741 27.8159 149.099 27.4781C149.161 27.4167 149.222 27.2938 149.222 27.2017C149.263 26.0346 149.283 24.8675 149.324 23.7107C149.365 22.3594 149.396 21.0182 149.488 19.6669C149.57 18.4282 149.703 17.1792 150.051 15.9916C150.246 15.3159 150.471 14.6403 150.983 14.1693C151.157 14.0158 151.372 13.8725 151.587 13.8213C152.068 13.7087 152.385 13.9646 152.6 14.5072C152.938 15.3467 153.153 16.2168 153.266 17.128C153.378 18.0494 153.511 18.9605 153.614 19.8819C153.726 20.8647 153.685 21.8475 153.645 22.8303C153.604 23.9155 153.593 25.0006 153.563 26.0858C153.552 26.4953 153.522 26.9048 153.522 27.3143C153.522 27.4269 153.563 27.5805 153.634 27.6521C155.037 29.0854 156.439 30.5186 157.852 31.9417C157.955 32.044 158.057 32.1362 158.241 32.2283C158.241 31.9928 158.221 31.7574 158.241 31.5219C158.272 31.1534 158.292 30.7643 158.385 30.4163C158.518 29.9351 158.845 29.7201 159.316 29.7201C159.777 29.7201 160.145 29.9863 160.309 30.4265C160.606 31.1841 160.627 31.9826 160.596 32.7914C160.586 33.293 160.545 33.7844 160.534 34.286C160.534 34.3782 160.596 34.4908 160.667 34.5522C161.671 35.4736 162.684 36.3847 163.698 37.2959C163.739 37.3368 163.8 37.3573 163.892 37.4187C163.892 36.9683 163.882 36.569 163.892 36.1595C163.903 35.7091 163.943 35.2688 164.281 34.9617C164.762 34.5215 165.899 34.6853 166.165 35.5964C166.319 36.1186 166.298 36.6509 166.278 37.1833C166.247 37.8999 166.226 38.6063 166.206 39.3229C166.206 39.415 166.257 39.5276 166.319 39.5891C167.373 40.6026 168.458 41.5649 169.472 42.6194C170.188 43.3667 170.833 44.1959 171.489 45.0252C171.826 45.4552 171.857 45.967 171.632 46.4892C171.448 46.9191 171.222 47.3184 170.864 47.5846C170.495 47.861 170.147 47.6767 169.84 47.4719C169.032 46.9191 168.253 46.3049 167.434 45.7828C165.889 44.7897 164.343 43.8069 162.756 42.8958C160.964 41.8618 159.152 40.879 157.32 39.9371C156.388 39.456 155.395 39.0977 154.423 38.7189C153.941 38.5346 153.706 38.6984 153.511 39.241C153.296 39.845 153.266 40.4797 153.225 41.1145C153.153 42.4556 153.102 43.8069 153.02 45.148C152.928 46.612 152.836 48.0657 152.682 49.5194C152.58 50.533 152.385 51.5465 152.242 52.5498C152.222 52.7033 152.201 52.8262 152.344 52.949C153.102 53.6247 153.839 54.3106 154.586 55.0067C155.231 55.6108 155.866 56.2148 156.501 56.829C156.869 57.1771 157.013 57.6685 157.054 58.1599C157.105 58.7332 157.074 59.3065 157.074 59.8798C157.074 59.931 157.054 59.9924 157.033 60.0436C156.921 60.494 156.869 60.535 156.501 60.4019C155.59 60.0538 154.679 59.716 153.778 59.327C152.836 58.9277 151.894 58.5285 151.003 58.0166C150.491 57.7299 150.133 57.9961 149.724 58.1599C148.905 58.4875 148.106 58.8561 147.287 59.1734C146.622 59.4294 145.936 59.6443 145.25 59.8491C144.902 59.9515 144.523 59.9719 144.165 60.0129C144.103 60.0231 143.97 59.931 143.96 59.8593C143.827 58.7537 143.714 57.6173 144.39 56.6755C144.728 56.2045 145.188 55.8462 145.629 55.4879C146.478 54.7918 147.359 54.1366 148.229 53.4609C148.464 53.2766 148.679 53.0821 148.915 52.8978C149.058 52.7852 149.109 52.6624 149.099 52.4474C148.976 51.1267 148.823 49.7959 148.771 48.465C148.71 46.9294 148.741 45.404 148.741 43.8684C148.741 42.8344 148.782 41.8004 148.771 40.7664C148.771 40.2648 148.71 39.7733 148.669 39.2717C148.608 38.6165 148.229 38.3196 147.645 38.4425C146.519 38.6779 145.455 39.1591 144.39 39.6095C143.438 40.0088 142.496 40.4388 141.554 40.879C140.397 41.4216 139.23 41.9642 138.084 42.558C136.814 43.2132 135.555 43.8991 134.306 44.6055C133.579 45.015 132.893 45.4961 132.176 45.9261C131.921 46.0796 131.634 46.2025 131.347 46.2742C130.938 46.3765 130.672 46.0796 130.467 45.7316C130.323 45.5063 130.211 45.2504 130.109 45.0047C129.924 44.5338 129.996 44.0936 130.252 43.6738C130.764 42.8548 131.439 42.2201 132.115 41.5956C132.821 40.9404 133.538 40.3159 134.265 39.7017C134.736 39.2922 135.237 38.9339 135.719 38.5346C135.801 38.4629 135.872 38.3299 135.882 38.2172C135.913 37.2959 135.913 36.3745 135.954 35.4531C135.985 34.8901 136.077 34.3372 136.538 33.9789C137.019 33.6104 137.971 33.6616 138.217 34.327C138.329 34.6239 138.339 34.972 138.36 35.2996C138.432 35.6579 138.411 36.0469 138.411 36.4666Z" fill="white"></path><path d="M341.336 92.1816V94.2231C338.871 94.5542 336.977 95.2715 335.653 96.375C333.814 97.9199 330.908 102.132 326.935 109.01L310.713 136.102V154.199C310.713 158.062 310.916 160.471 311.32 161.427C311.725 162.347 312.516 163.174 313.693 163.91C314.907 164.609 316.507 164.958 318.493 164.958H322.687V167H280.698V164.958H284.615C286.822 164.958 288.569 164.572 289.857 163.8C290.813 163.285 291.567 162.402 292.119 161.151C292.524 160.269 292.726 157.951 292.726 154.199V139.191L275.125 107.134C271.631 100.807 269.166 97.0923 267.731 95.9888C266.297 94.8485 264.384 94.2599 261.993 94.2231V92.1816H297.857V94.2231H296.257C294.087 94.2231 292.561 94.5358 291.678 95.1611C290.832 95.7865 290.409 96.4486 290.409 97.1475C290.409 98.4717 291.88 101.801 294.823 107.134L308.341 131.908L321.804 109.341C325.151 103.824 326.825 100.164 326.825 98.3613C326.825 97.3682 326.347 96.5405 325.39 95.8784C324.139 94.9588 321.84 94.4071 318.493 94.2231V92.1816H341.336ZM393.422 145.702H366.993L363.848 152.985C362.818 155.413 362.303 157.418 362.303 159C362.303 161.096 363.149 162.641 364.841 163.634C365.834 164.223 368.28 164.664 372.179 164.958V167H347.295V164.958C349.98 164.554 352.187 163.45 353.916 161.648C355.645 159.809 357.778 156.038 360.316 150.337L387.077 90.6367H388.125L415.106 151.992C417.681 157.804 419.796 161.464 421.451 162.972C422.702 164.112 424.467 164.775 426.748 164.958V167H390.553V164.958H392.042C394.948 164.958 396.99 164.554 398.167 163.745C398.976 163.156 399.381 162.31 399.381 161.207C399.381 160.544 399.271 159.864 399.05 159.165C398.976 158.834 398.424 157.455 397.395 155.027L393.422 145.702ZM391.546 141.619L380.4 115.852L368.924 141.619H391.546ZM505.098 92.1816V112.431H503.111C501.934 107.76 500.628 104.412 499.194 102.389C497.759 100.329 495.791 98.6924 493.29 97.4785C491.892 96.8164 489.446 96.4854 485.952 96.4854H480.379V154.199C480.379 158.025 480.581 160.416 480.986 161.372C481.427 162.328 482.255 163.174 483.469 163.91C484.719 164.609 486.411 164.958 488.545 164.958H491.028V167H451.853V164.958H454.336C456.506 164.958 458.253 164.572 459.578 163.8C460.534 163.285 461.288 162.402 461.84 161.151C462.244 160.269 462.447 157.951 462.447 154.199V96.4854H457.04C452 96.4854 448.34 97.5521 446.06 99.6855C442.859 102.665 440.836 106.914 439.99 112.431H437.894V92.1816H505.098ZM553.321 132.901V153.868C553.321 157.914 553.56 160.471 554.039 161.538C554.554 162.568 555.436 163.395 556.687 164.021C557.938 164.646 560.273 164.958 563.694 164.958V167H525.402V164.958C528.86 164.958 531.196 164.646 532.41 164.021C533.66 163.358 534.525 162.512 535.003 161.482C535.518 160.452 535.775 157.914 535.775 153.868V105.313C535.775 101.267 535.518 98.7292 535.003 97.6992C534.525 96.6325 533.66 95.7865 532.41 95.1611C531.159 94.5358 528.823 94.2231 525.402 94.2231V92.1816H560.163C569.212 92.1816 575.833 92.807 580.026 94.0576C584.22 95.3083 587.641 97.6257 590.289 101.01C592.938 104.357 594.262 108.293 594.262 112.817C594.262 118.335 592.275 122.896 588.303 126.501C585.765 128.782 582.215 130.492 577.654 131.632L595.641 156.958C597.995 160.232 599.669 162.273 600.662 163.083C602.17 164.223 603.917 164.848 605.904 164.958V167H582.344L558.232 132.901H553.321ZM553.321 96.2095V128.984H556.466C561.579 128.984 565.405 128.524 567.943 127.604C570.481 126.648 572.467 124.956 573.902 122.528C575.373 120.064 576.109 116.864 576.109 112.928C576.109 107.226 574.766 103.014 572.081 100.292C569.433 97.5705 565.147 96.2095 559.225 96.2095H553.321ZM660.473 164.958V167H621.353V164.958H623.836C626.006 164.958 627.753 164.572 629.078 163.8C630.034 163.285 630.77 162.402 631.285 161.151C631.689 160.269 631.892 157.951 631.892 154.199V104.982C631.892 101.157 631.689 98.766 631.285 97.8096C630.88 96.8532 630.052 96.0256 628.802 95.3267C627.588 94.591 625.933 94.2231 623.836 94.2231H621.353V92.1816H660.473V94.2231H657.99C655.819 94.2231 654.072 94.6094 652.748 95.3818C651.792 95.8968 651.038 96.7796 650.486 98.0303C650.081 98.9131 649.879 101.23 649.879 104.982V154.199C649.879 158.025 650.081 160.416 650.486 161.372C650.927 162.328 651.755 163.174 652.969 163.91C654.219 164.609 655.893 164.958 657.99 164.958H660.473Z" fill="#350073"></path><path d="M278.266 216.975V222.687H284.986V225.291H278.266V231.255H285.826V233.859H275.074V214.371H285.826V216.975H278.266ZM288.694 226.075C288.694 224.525 289.011 223.153 289.646 221.959C290.299 220.764 291.176 219.84 292.278 219.187C293.398 218.515 294.639 218.179 296.002 218.179C297.01 218.179 297.999 218.403 298.97 218.851C299.959 219.28 300.743 219.859 301.322 220.587V213.139H304.542V233.859H301.322V231.535C300.799 232.281 300.071 232.897 299.138 233.383C298.223 233.868 297.168 234.111 295.974 234.111C294.63 234.111 293.398 233.775 292.278 233.103C291.176 232.412 290.299 231.46 289.646 230.247C289.011 229.015 288.694 227.624 288.694 226.075ZM301.322 226.131C301.322 225.067 301.098 224.143 300.65 223.359C300.22 222.575 299.651 221.977 298.942 221.567C298.232 221.156 297.467 220.951 296.646 220.951C295.824 220.951 295.059 221.156 294.35 221.567C293.64 221.959 293.062 222.547 292.614 223.331C292.184 224.096 291.97 225.011 291.97 226.075C291.97 227.139 292.184 228.072 292.614 228.875C293.062 229.677 293.64 230.293 294.35 230.723C295.078 231.133 295.843 231.339 296.646 231.339C297.467 231.339 298.232 231.133 298.942 230.723C299.651 230.312 300.22 229.715 300.65 228.931C301.098 228.128 301.322 227.195 301.322 226.131ZM322.706 218.431V233.859H319.514V232.039C319.01 232.673 318.348 233.177 317.526 233.551C316.724 233.905 315.865 234.083 314.95 234.083C313.737 234.083 312.645 233.831 311.674 233.327C310.722 232.823 309.966 232.076 309.406 231.087C308.865 230.097 308.594 228.903 308.594 227.503V218.431H311.758V227.027C311.758 228.408 312.104 229.472 312.794 230.219C313.485 230.947 314.428 231.311 315.622 231.311C316.817 231.311 317.76 230.947 318.45 230.219C319.16 229.472 319.514 228.408 319.514 227.027V218.431H322.706ZM325.854 226.131C325.854 224.544 326.171 223.153 326.806 221.959C327.459 220.745 328.355 219.812 329.494 219.159C330.633 218.505 331.939 218.179 333.414 218.179C335.281 218.179 336.821 218.627 338.034 219.523C339.266 220.4 340.097 221.66 340.526 223.303H337.082C336.802 222.537 336.354 221.94 335.738 221.511C335.122 221.081 334.347 220.867 333.414 220.867C332.107 220.867 331.062 221.333 330.278 222.267C329.513 223.181 329.13 224.469 329.13 226.131C329.13 227.792 329.513 229.089 330.278 230.023C331.062 230.956 332.107 231.423 333.414 231.423C335.262 231.423 336.485 230.611 337.082 228.987H340.526C340.078 230.555 339.238 231.805 338.006 232.739C336.774 233.653 335.243 234.111 333.414 234.111C331.939 234.111 330.633 233.784 329.494 233.131C328.355 232.459 327.459 231.525 326.806 230.331C326.171 229.117 325.854 227.717 325.854 226.131ZM342.643 226.075C342.643 224.525 342.96 223.153 343.595 221.959C344.248 220.764 345.126 219.84 346.227 219.187C347.347 218.515 348.579 218.179 349.923 218.179C351.136 218.179 352.191 218.421 353.087 218.907C354.002 219.373 354.73 219.961 355.271 220.671V218.431H358.491V233.859H355.271V231.563C354.73 232.291 353.992 232.897 353.059 233.383C352.126 233.868 351.062 234.111 349.867 234.111C348.542 234.111 347.328 233.775 346.227 233.103C345.126 232.412 344.248 231.46 343.595 230.247C342.96 229.015 342.643 227.624 342.643 226.075ZM355.271 226.131C355.271 225.067 355.047 224.143 354.599 223.359C354.17 222.575 353.6 221.977 352.891 221.567C352.182 221.156 351.416 220.951 350.595 220.951C349.774 220.951 349.008 221.156 348.299 221.567C347.59 221.959 347.011 222.547 346.563 223.331C346.134 224.096 345.919 225.011 345.919 226.075C345.919 227.139 346.134 228.072 346.563 228.875C347.011 229.677 347.59 230.293 348.299 230.723C349.027 231.133 349.792 231.339 350.595 231.339C351.416 231.339 352.182 231.133 352.891 230.723C353.6 230.312 354.17 229.715 354.599 228.931C355.047 228.128 355.271 227.195 355.271 226.131ZM366.407 221.035V229.575C366.407 230.153 366.538 230.573 366.799 230.835C367.079 231.077 367.546 231.199 368.199 231.199H370.159V233.859H367.639C366.202 233.859 365.101 233.523 364.335 232.851C363.57 232.179 363.187 231.087 363.187 229.575V221.035H361.367V218.431H363.187V214.595H366.407V218.431H370.159V221.035H366.407ZM374.725 216.387C374.147 216.387 373.661 216.191 373.269 215.799C372.877 215.407 372.681 214.921 372.681 214.343C372.681 213.764 372.877 213.279 373.269 212.887C373.661 212.495 374.147 212.299 374.725 212.299C375.285 212.299 375.761 212.495 376.153 212.887C376.545 213.279 376.741 213.764 376.741 214.343C376.741 214.921 376.545 215.407 376.153 215.799C375.761 216.191 375.285 216.387 374.725 216.387ZM376.293 218.431V233.859H373.101V218.431H376.293ZM387.176 234.111C385.72 234.111 384.404 233.784 383.228 233.131C382.052 232.459 381.128 231.525 380.456 230.331C379.784 229.117 379.448 227.717 379.448 226.131C379.448 224.563 379.794 223.172 380.484 221.959C381.175 220.745 382.118 219.812 383.312 219.159C384.507 218.505 385.842 218.179 387.316 218.179C388.791 218.179 390.126 218.505 391.32 219.159C392.515 219.812 393.458 220.745 394.148 221.959C394.839 223.172 395.184 224.563 395.184 226.131C395.184 227.699 394.83 229.089 394.12 230.303C393.411 231.516 392.44 232.459 391.208 233.131C389.995 233.784 388.651 234.111 387.176 234.111ZM387.176 231.339C387.998 231.339 388.763 231.143 389.472 230.751C390.2 230.359 390.788 229.771 391.236 228.987C391.684 228.203 391.908 227.251 391.908 226.131C391.908 225.011 391.694 224.068 391.264 223.303C390.835 222.519 390.266 221.931 389.556 221.539C388.847 221.147 388.082 220.951 387.26 220.951C386.439 220.951 385.674 221.147 384.964 221.539C384.274 221.931 383.723 222.519 383.312 223.303C382.902 224.068 382.696 225.011 382.696 226.131C382.696 227.792 383.116 229.08 383.956 229.995C384.815 230.891 385.888 231.339 387.176 231.339ZM406.124 218.179C407.337 218.179 408.42 218.431 409.372 218.935C410.342 219.439 411.098 220.185 411.64 221.175C412.181 222.164 412.452 223.359 412.452 224.759V233.859H409.288V225.235C409.288 223.853 408.942 222.799 408.252 222.071C407.561 221.324 406.618 220.951 405.424 220.951C404.229 220.951 403.277 221.324 402.568 222.071C401.877 222.799 401.532 223.853 401.532 225.235V233.859H398.34V218.431H401.532V220.195C402.054 219.56 402.717 219.065 403.52 218.711C404.341 218.356 405.209 218.179 406.124 218.179ZM422.733 226.075C422.733 224.525 423.05 223.153 423.685 221.959C424.338 220.764 425.215 219.84 426.317 219.187C427.437 218.515 428.669 218.179 430.013 218.179C431.226 218.179 432.281 218.421 433.177 218.907C434.091 219.373 434.819 219.961 435.361 220.671V218.431H438.581V233.859H435.361V231.563C434.819 232.291 434.082 232.897 433.149 233.383C432.215 233.868 431.151 234.111 429.957 234.111C428.631 234.111 427.418 233.775 426.317 233.103C425.215 232.412 424.338 231.46 423.685 230.247C423.05 229.015 422.733 227.624 422.733 226.075ZM435.361 226.131C435.361 225.067 435.137 224.143 434.689 223.359C434.259 222.575 433.69 221.977 432.981 221.567C432.271 221.156 431.506 220.951 430.685 220.951C429.863 220.951 429.098 221.156 428.389 221.567C427.679 221.959 427.101 222.547 426.653 223.331C426.223 224.096 426.009 225.011 426.009 226.075C426.009 227.139 426.223 228.072 426.653 228.875C427.101 229.677 427.679 230.293 428.389 230.723C429.117 231.133 429.882 231.339 430.685 231.339C431.506 231.339 432.271 231.133 432.981 230.723C433.69 230.312 434.259 229.715 434.689 228.931C435.137 228.128 435.361 227.195 435.361 226.131ZM450.557 218.179C451.771 218.179 452.853 218.431 453.805 218.935C454.776 219.439 455.532 220.185 456.073 221.175C456.615 222.164 456.885 223.359 456.885 224.759V233.859H453.721V225.235C453.721 223.853 453.376 222.799 452.685 222.071C451.995 221.324 451.052 220.951 449.857 220.951C448.663 220.951 447.711 221.324 447.001 222.071C446.311 222.799 445.965 223.853 445.965 225.235V233.859H442.773V218.431H445.965V220.195C446.488 219.56 447.151 219.065 447.953 218.711C448.775 218.356 449.643 218.179 450.557 218.179ZM459.893 226.075C459.893 224.525 460.21 223.153 460.845 221.959C461.498 220.764 462.376 219.84 463.477 219.187C464.597 218.515 465.838 218.179 467.201 218.179C468.209 218.179 469.198 218.403 470.169 218.851C471.158 219.28 471.942 219.859 472.521 220.587V213.139H475.741V233.859H472.521V231.535C471.998 232.281 471.27 232.897 470.337 233.383C469.422 233.868 468.368 234.111 467.173 234.111C465.829 234.111 464.597 233.775 463.477 233.103C462.376 232.412 461.498 231.46 460.845 230.247C460.21 229.015 459.893 227.624 459.893 226.075ZM472.521 226.131C472.521 225.067 472.297 224.143 471.849 223.359C471.42 222.575 470.85 221.977 470.141 221.567C469.432 221.156 468.666 220.951 467.845 220.951C467.024 220.951 466.258 221.156 465.549 221.567C464.84 221.959 464.261 222.547 463.813 223.331C463.384 224.096 463.169 225.011 463.169 226.075C463.169 227.139 463.384 228.072 463.813 228.875C464.261 229.677 464.84 230.293 465.549 230.723C466.277 231.133 467.042 231.339 467.845 231.339C468.666 231.339 469.432 231.133 470.141 230.723C470.85 230.312 471.42 229.715 471.849 228.931C472.297 228.128 472.521 227.195 472.521 226.131ZM503.979 214.399L496.671 233.859H492.975L485.639 214.399H489.055L494.823 230.583L500.619 214.399H503.979ZM508.272 216.387C507.694 216.387 507.208 216.191 506.816 215.799C506.424 215.407 506.228 214.921 506.228 214.343C506.228 213.764 506.424 213.279 506.816 212.887C507.208 212.495 507.694 212.299 508.272 212.299C508.832 212.299 509.308 212.495 509.7 212.887C510.092 213.279 510.288 213.764 510.288 214.343C510.288 214.921 510.092 215.407 509.7 215.799C509.308 216.191 508.832 216.387 508.272 216.387ZM509.84 218.431V233.859H506.648V218.431H509.84ZM519.631 234.111C518.418 234.111 517.326 233.896 516.355 233.467C515.403 233.019 514.647 232.421 514.087 231.675C513.527 230.909 513.228 230.06 513.191 229.127H516.495C516.551 229.78 516.859 230.331 517.419 230.779C517.998 231.208 518.716 231.423 519.575 231.423C520.471 231.423 521.162 231.255 521.647 230.919C522.151 230.564 522.403 230.116 522.403 229.575C522.403 228.996 522.123 228.567 521.563 228.287C521.022 228.007 520.154 227.699 518.959 227.363C517.802 227.045 516.859 226.737 516.131 226.439C515.403 226.14 514.768 225.683 514.227 225.067C513.704 224.451 513.443 223.639 513.443 222.631C513.443 221.809 513.686 221.063 514.171 220.391C514.656 219.7 515.347 219.159 516.243 218.767C517.158 218.375 518.203 218.179 519.379 218.179C521.134 218.179 522.543 218.627 523.607 219.523C524.69 220.4 525.268 221.604 525.343 223.135H522.151C522.095 222.444 521.815 221.893 521.311 221.483C520.807 221.072 520.126 220.867 519.267 220.867C518.427 220.867 517.783 221.025 517.335 221.343C516.887 221.66 516.663 222.08 516.663 222.603C516.663 223.013 516.812 223.359 517.111 223.639C517.41 223.919 517.774 224.143 518.203 224.311C518.632 224.46 519.267 224.656 520.107 224.899C521.227 225.197 522.142 225.505 522.851 225.823C523.579 226.121 524.204 226.569 524.727 227.167C525.25 227.764 525.52 228.557 525.539 229.547C525.539 230.424 525.296 231.208 524.811 231.899C524.326 232.589 523.635 233.131 522.739 233.523C521.862 233.915 520.826 234.111 519.631 234.111ZM527.924 226.075C527.924 224.525 528.242 223.153 528.876 221.959C529.53 220.764 530.407 219.84 531.508 219.187C532.628 218.515 533.86 218.179 535.204 218.179C536.418 218.179 537.472 218.421 538.368 218.907C539.283 219.373 540.011 219.961 540.552 220.671V218.431H543.772V233.859H540.552V231.563C540.011 232.291 539.274 232.897 538.34 233.383C537.407 233.868 536.343 234.111 535.148 234.111C533.823 234.111 532.61 233.775 531.508 233.103C530.407 232.412 529.53 231.46 528.876 230.247C528.242 229.015 527.924 227.624 527.924 226.075ZM540.552 226.131C540.552 225.067 540.328 224.143 539.88 223.359C539.451 222.575 538.882 221.977 538.172 221.567C537.463 221.156 536.698 220.951 535.876 220.951C535.055 220.951 534.29 221.156 533.58 221.567C532.871 221.959 532.292 222.547 531.844 223.331C531.415 224.096 531.2 225.011 531.2 226.075C531.2 227.139 531.415 228.072 531.844 228.875C532.292 229.677 532.871 230.293 533.58 230.723C534.308 231.133 535.074 231.339 535.876 231.339C536.698 231.339 537.463 231.133 538.172 230.723C538.882 230.312 539.451 229.715 539.88 228.931C540.328 228.128 540.552 227.195 540.552 226.131ZM561.65 234.055C560.344 234.055 559.168 233.831 558.122 233.383C557.077 232.916 556.256 232.263 555.658 231.423C555.061 230.583 554.762 229.603 554.762 228.483H558.178C558.253 229.323 558.58 230.013 559.158 230.555C559.756 231.096 560.586 231.367 561.65 231.367C562.752 231.367 563.61 231.105 564.226 230.583C564.842 230.041 565.15 229.351 565.15 228.511C565.15 227.857 564.954 227.325 564.562 226.915C564.189 226.504 563.713 226.187 563.134 225.963C562.574 225.739 561.79 225.496 560.782 225.235C559.513 224.899 558.477 224.563 557.674 224.227C556.89 223.872 556.218 223.331 555.658 222.603C555.098 221.875 554.818 220.904 554.818 219.691C554.818 218.571 555.098 217.591 555.658 216.751C556.218 215.911 557.002 215.267 558.01 214.819C559.018 214.371 560.185 214.147 561.51 214.147C563.396 214.147 564.936 214.623 566.13 215.575C567.344 216.508 568.016 217.796 568.146 219.439H564.618C564.562 218.729 564.226 218.123 563.61 217.619C562.994 217.115 562.182 216.863 561.174 216.863C560.26 216.863 559.513 217.096 558.934 217.563C558.356 218.029 558.066 218.701 558.066 219.579C558.066 220.176 558.244 220.671 558.598 221.063C558.972 221.436 559.438 221.735 559.998 221.959C560.558 222.183 561.324 222.425 562.294 222.687C563.582 223.041 564.628 223.396 565.43 223.751C566.252 224.105 566.942 224.656 567.502 225.403C568.081 226.131 568.37 227.111 568.37 228.343C568.37 229.332 568.1 230.265 567.558 231.143C567.036 232.02 566.261 232.729 565.234 233.271C564.226 233.793 563.032 234.055 561.65 234.055ZM586.277 225.767C586.277 226.345 586.239 226.868 586.165 227.335H574.377C574.47 228.567 574.927 229.556 575.749 230.303C576.57 231.049 577.578 231.423 578.773 231.423C580.49 231.423 581.703 230.704 582.413 229.267H585.857C585.39 230.685 584.541 231.852 583.309 232.767C582.095 233.663 580.583 234.111 578.773 234.111C577.298 234.111 575.973 233.784 574.797 233.131C573.639 232.459 572.725 231.525 572.053 230.331C571.399 229.117 571.073 227.717 571.073 226.131C571.073 224.544 571.39 223.153 572.025 221.959C572.678 220.745 573.583 219.812 574.741 219.159C575.917 218.505 577.261 218.179 578.773 218.179C580.229 218.179 581.526 218.496 582.665 219.131C583.803 219.765 584.69 220.661 585.325 221.819C585.959 222.957 586.277 224.273 586.277 225.767ZM582.945 224.759C582.926 223.583 582.506 222.64 581.685 221.931C580.863 221.221 579.846 220.867 578.633 220.867C577.531 220.867 576.589 221.221 575.805 221.931C575.021 222.621 574.554 223.564 574.405 224.759H582.945ZM592.61 220.671C593.077 219.887 593.693 219.28 594.458 218.851C595.242 218.403 596.166 218.179 597.23 218.179V221.483H596.418C595.167 221.483 594.215 221.8 593.562 222.435C592.927 223.069 592.61 224.171 592.61 225.739V233.859H589.418V218.431H592.61V220.671ZM606.128 231.003L610.496 218.431H613.884L608.004 233.859H604.196L598.344 218.431H601.76L606.128 231.003ZM617.921 216.387C617.342 216.387 616.857 216.191 616.465 215.799C616.073 215.407 615.877 214.921 615.877 214.343C615.877 213.764 616.073 213.279 616.465 212.887C616.857 212.495 617.342 212.299 617.921 212.299C618.481 212.299 618.957 212.495 619.349 212.887C619.741 213.279 619.937 213.764 619.937 214.343C619.937 214.921 619.741 215.407 619.349 215.799C618.957 216.191 618.481 216.387 617.921 216.387ZM619.489 218.431V233.859H616.297V218.431H619.489ZM622.616 226.131C622.616 224.544 622.933 223.153 623.568 221.959C624.221 220.745 625.117 219.812 626.256 219.159C627.394 218.505 628.701 218.179 630.176 218.179C632.042 218.179 633.582 218.627 634.796 219.523C636.028 220.4 636.858 221.66 637.288 223.303H633.844C633.564 222.537 633.116 221.94 632.5 221.511C631.884 221.081 631.109 220.867 630.176 220.867C628.869 220.867 627.824 221.333 627.04 222.267C626.274 223.181 625.892 224.469 625.892 226.131C625.892 227.792 626.274 229.089 627.04 230.023C627.824 230.956 628.869 231.423 630.176 231.423C632.024 231.423 633.246 230.611 633.844 228.987H637.288C636.84 230.555 636 231.805 634.768 232.739C633.536 233.653 632.005 234.111 630.176 234.111C628.701 234.111 627.394 233.784 626.256 233.131C625.117 232.459 624.221 231.525 623.568 230.331C622.933 229.117 622.616 227.717 622.616 226.131ZM654.609 225.767C654.609 226.345 654.571 226.868 654.497 227.335H642.709C642.802 228.567 643.259 229.556 644.081 230.303C644.902 231.049 645.91 231.423 647.105 231.423C648.822 231.423 650.035 230.704 650.745 229.267H654.189C653.722 230.685 652.873 231.852 651.641 232.767C650.427 233.663 648.915 234.111 647.105 234.111C645.63 234.111 644.305 233.784 643.129 233.131C641.971 232.459 641.057 231.525 640.385 230.331C639.731 229.117 639.405 227.717 639.405 226.131C639.405 224.544 639.722 223.153 640.357 221.959C641.01 220.745 641.915 219.812 643.073 219.159C644.249 218.505 645.593 218.179 647.105 218.179C648.561 218.179 649.858 218.496 650.997 219.131C652.135 219.765 653.022 220.661 653.657 221.819C654.291 222.957 654.609 224.273 654.609 225.767ZM651.277 224.759C651.258 223.583 650.838 222.64 650.017 221.931C649.195 221.221 648.178 220.867 646.965 220.867C645.863 220.867 644.921 221.221 644.137 221.931C643.353 222.621 642.886 223.564 642.737 224.759H651.277ZM663.35 234.111C662.137 234.111 661.045 233.896 660.074 233.467C659.122 233.019 658.366 232.421 657.806 231.675C657.246 230.909 656.947 230.06 656.91 229.127H660.214C660.27 229.78 660.578 230.331 661.138 230.779C661.717 231.208 662.435 231.423 663.294 231.423C664.19 231.423 664.881 231.255 665.366 230.919C665.87 230.564 666.122 230.116 666.122 229.575C666.122 228.996 665.842 228.567 665.282 228.287C664.741 228.007 663.873 227.699 662.678 227.363C661.521 227.045 660.578 226.737 659.85 226.439C659.122 226.14 658.487 225.683 657.946 225.067C657.423 224.451 657.162 223.639 657.162 222.631C657.162 221.809 657.405 221.063 657.89 220.391C658.375 219.7 659.066 219.159 659.962 218.767C660.877 218.375 661.922 218.179 663.098 218.179C664.853 218.179 666.262 218.627 667.326 219.523C668.409 220.4 668.987 221.604 669.062 223.135H665.87C665.814 222.444 665.534 221.893 665.03 221.483C664.526 221.072 663.845 220.867 662.986 220.867C662.146 220.867 661.502 221.025 661.054 221.343C660.606 221.66 660.382 222.08 660.382 222.603C660.382 223.013 660.531 223.359 660.83 223.639C661.129 223.919 661.493 224.143 661.922 224.311C662.351 224.46 662.986 224.656 663.826 224.899C664.946 225.197 665.861 225.505 666.57 225.823C667.298 226.121 667.923 226.569 668.446 227.167C668.969 227.764 669.239 228.557 669.258 229.547C669.258 230.424 669.015 231.208 668.53 231.899C668.045 232.589 667.354 233.131 666.458 233.523C665.581 233.915 664.545 234.111 663.35 234.111Z" fill="#350073"></path><path d="M447.949 199.476V200H439.722V199.476H440.402C441.195 199.476 441.771 199.245 442.129 198.782C442.356 198.48 442.469 197.753 442.469 196.602V184.197C442.469 183.225 442.408 182.583 442.285 182.271C442.191 182.035 441.997 181.833 441.705 181.663C441.289 181.436 440.855 181.323 440.402 181.323H439.722V180.799H447.949V181.323H447.255C446.472 181.323 445.901 181.554 445.542 182.017C445.306 182.319 445.188 183.046 445.188 184.197V196.602C445.188 197.574 445.249 198.216 445.372 198.527C445.466 198.763 445.665 198.966 445.967 199.136C446.373 199.363 446.802 199.476 447.255 199.476H447.949ZM448.275 180.799H453.486L465.225 195.2V184.126C465.225 182.946 465.092 182.21 464.828 181.917C464.479 181.521 463.927 181.323 463.171 181.323H462.506V180.799H469.189V181.323H468.51C467.698 181.323 467.122 181.568 466.782 182.059C466.575 182.361 466.471 183.05 466.471 184.126V200.312H465.961L453.302 184.849V196.672C453.302 197.852 453.429 198.589 453.684 198.881C454.043 199.278 454.595 199.476 455.341 199.476H456.021V200H449.337V199.476H450.002C450.824 199.476 451.404 199.231 451.744 198.74C451.952 198.438 452.056 197.749 452.056 196.672V183.319C451.499 182.668 451.074 182.238 450.781 182.031C450.498 181.823 450.078 181.63 449.521 181.45C449.247 181.365 448.832 181.323 448.275 181.323V180.799ZM486.394 180.799L486.606 185.302H486.068C485.965 184.509 485.823 183.942 485.644 183.603C485.351 183.055 484.959 182.654 484.468 182.399C483.987 182.135 483.35 182.002 482.557 182.002H479.852V196.672C479.852 197.852 479.979 198.589 480.234 198.881C480.593 199.278 481.145 199.476 481.891 199.476H482.557V200H474.415V199.476H475.094C475.906 199.476 476.482 199.231 476.822 198.74C477.029 198.438 477.133 197.749 477.133 196.672V182.002H474.825C473.928 182.002 473.291 182.069 472.914 182.201C472.423 182.38 472.003 182.725 471.653 183.234C471.304 183.744 471.096 184.433 471.03 185.302H470.492L470.719 180.799H486.394ZM490.713 187.695V187.029C491.685 186.453 492.346 185.915 492.695 185.415C492.941 185.056 493.063 184.627 493.063 184.126C493.063 183.834 493.012 183.617 492.908 183.475C492.794 183.333 492.672 183.263 492.54 183.263C492.436 183.263 492.299 183.296 492.129 183.362C491.883 183.447 491.681 183.489 491.52 183.489C491.142 183.489 490.807 183.348 490.515 183.064C490.222 182.781 490.076 182.427 490.076 182.002C490.076 181.53 490.222 181.162 490.515 180.898C490.911 180.539 491.383 180.36 491.931 180.36C492.563 180.36 493.13 180.629 493.63 181.167C494.14 181.696 494.395 182.356 494.395 183.149C494.395 184.263 493.974 185.278 493.134 186.194C492.577 186.798 491.77 187.298 490.713 187.695ZM513.624 194.69L514.091 194.789L512.449 200H497.581V199.476H498.303C499.115 199.476 499.695 199.212 500.044 198.683C500.243 198.381 500.342 197.682 500.342 196.587V184.197C500.342 182.998 500.21 182.248 499.945 181.946C499.577 181.53 499.03 181.323 498.303 181.323H497.581V180.799H506.275V181.323C505.255 181.313 504.538 181.408 504.123 181.606C503.717 181.804 503.438 182.054 503.287 182.356C503.136 182.659 503.061 183.381 503.061 184.523V196.587C503.061 197.371 503.136 197.909 503.287 198.202C503.4 198.4 503.575 198.546 503.811 198.641C504.047 198.735 504.783 198.782 506.02 198.782H507.422C508.895 198.782 509.928 198.674 510.523 198.457C511.118 198.239 511.66 197.857 512.151 197.31C512.642 196.753 513.133 195.879 513.624 194.69Z" fill="#350073"></path><path d="M429.56 187.11H277.61V195.29H429.56V187.11Z" fill="#FAB612"></path><path d="M670.78 187.11H518.83V195.29H670.78V187.11Z" fill="#FAB612"></path></svg>